<svg xmlns="http://www.w3.org/2000/svg" width="64" height="64" enable-background="new 0 0 64 64" viewBox="0 0 64 64" id="letter-t"><path d="M47.468,7.107H16.532c-2.206,0-4,1.794-4,4v4.588c0,2.206,1.794,4,4,4h8.709v33.197c0,2.206,1.794,4,4,4h5.456
			c2.206,0,4-1.794,4-4V19.695h8.771c2.206,0,4-1.794,4-4v-4.588C51.468,8.902,49.674,7.107,47.468,7.107z M48.468,15.695
			c0,0.551-0.448,1-1,1H37.197c-0.827,0-1.5,0.673-1.5,1.5v34.697c0,0.551-0.448,1-1,1h-5.456c-0.552,0-1-0.449-1-1V18.195
			c0-0.827-0.673-1.5-1.5-1.5H16.532c-0.552,0-1-0.449-1-1v-4.588c0-0.551,0.448-1,1-1h30.936c0.552,0,1,0.449,1,1V15.695z"></path></svg>